<!-- width="150" height="144" -->
<svg width="100%" height="100%" viewBox="0 0 150 144" fill="none" xmlns="http://www.w3.org/2000/svg">
<path d="M127.979 23.1609C141.671 33.2047 149.814 53.9684 149.993 75.0217C150.262 96.0751 142.655 117.418 128.963 129.683C115.361 142.045 95.5836 145.425 77.5963 143.493C59.5195 141.659 43.2324 134.512 29.3616 122.15C15.4012 109.885 3.76764 92.3087 1.44091 72.2211C-0.885807 52.1334 6.09436 29.6315 20.0547 19.5877C34.015 9.54385 54.866 12.0548 75.0011 12.924C95.0467 13.7931 114.287 13.1171 127.979 23.1609Z" fill="#11FF1A"/>
<path d="M109.278 27.3957L63.1687 1.46863C59.6712 -0.489544 55.3288 -0.489544 51.8313 1.46863L5.72219 27.3957C2.19262 29.3753 0 33.0883 0 37.0689V88.9231C0 92.9036 2.19262 96.6167 5.72219 98.5962L51.8313 124.523C53.5854 125.508 55.5427 126 57.5 126C59.4573 126 61.4146 125.508 63.1687 124.523L109.278 98.5962C112.807 96.6167 115 92.9036 115 88.9231V37.0689C115 33.0883 112.807 29.3753 109.278 27.3957ZM57.5 95.8676C39.3815 95.8676 24.6429 81.1225 24.6429 62.996C24.6429 44.8695 39.3815 30.1243 57.5 30.1243C67.8534 30.1243 77.4154 34.9288 83.6296 43.1146L71.629 50.0592C68.0246 46.1107 62.9013 43.8209 57.5 43.8209C46.9327 43.8209 38.3333 52.424 38.3333 62.996C38.3333 73.568 46.9327 82.1711 57.5 82.1711C62.9013 82.1711 68.0246 79.8812 71.629 75.9328L83.6296 82.8773C77.4154 91.0632 67.8534 95.8676 57.5 95.8676ZM90.3571 65.7353H84.881V71.2139H79.4048V65.7353H73.9286V60.2567H79.4048V54.7781H84.881V60.2567H90.3571V65.7353ZM109.524 65.7353H104.048V71.2139H98.5714V65.7353H93.0952V60.2567H98.5714V54.7781H104.048V60.2567H109.524V65.7353Z" fill="black"/>
</svg>
