<!-- width="183" height="203" -->
<svg width="100%" height="100%" viewBox="0 0 183 203" fill="none" xmlns="http://www.w3.org/2000/svg">
<path d="M170.178 24.8375C184.536 42.7929 185.534 70.5989 179.542 92.295C173.549 114.116 160.69 129.952 146.333 150.276C131.975 170.601 116.12 195.539 94.2714 201.524C72.4232 207.509 44.5823 194.666 26.105 174.341C7.75245 153.892 -1.23652 126.086 0.136796 99.6517C1.51011 73.2174 13.3706 48.2793 31.7231 30.3238C50.2004 12.3684 75.1698 1.52034 101.637 0.148749C127.98 -1.22285 155.821 6.88203 170.178 24.8375Z" fill="#FF7A00"/>
<path d="M54.3929 128.49C54.3929 128.49 48.5379 131.895 58.5597 133.047C70.7009 134.432 76.9061 134.234 90.2858 131.701C90.2858 131.701 93.8034 133.907 98.7161 135.817C68.7224 148.672 30.8345 135.073 54.3929 128.49Z" fill="black"/>
<path d="M50.7278 111.715C50.7278 111.715 44.1608 116.576 54.1901 117.614C67.1597 118.952 77.402 119.061 95.1253 115.649C95.1253 115.649 97.5766 118.134 101.431 119.493C65.1671 130.097 24.7754 120.329 50.7278 111.715Z" fill="black"/>
<path d="M81.6255 83.2601C89.0159 91.7688 79.6837 99.4256 79.6837 99.4256C79.6837 99.4256 98.4493 89.7382 89.8311 77.6074C81.782 66.2946 75.6094 60.6737 109.025 41.2937C109.025 41.2937 56.5734 54.3938 81.6255 83.2601Z" fill="black"/>
<path d="M121.294 140.898C121.294 140.898 125.627 144.468 116.523 147.23C99.2099 152.474 44.4652 154.058 29.2573 147.439C23.7905 145.06 34.0424 141.76 37.2672 141.067C40.6304 140.338 42.5523 140.474 42.5523 140.474C36.4727 136.191 3.2558 148.883 25.6798 152.518C86.8334 162.436 137.157 148.053 121.294 140.898Z" fill="black"/>
<path d="M57.2084 94.335C57.2084 94.335 29.3618 100.949 47.3472 103.351C54.9413 104.368 70.0797 104.138 84.1809 102.956C95.7051 101.984 107.277 99.917 107.277 99.917C107.277 99.917 103.213 101.657 100.273 103.665C71.9955 111.102 17.368 107.642 33.0946 100.035C46.3945 93.6057 57.2084 94.335 57.2084 94.335Z" fill="black"/>
<path d="M107.162 122.257C135.908 107.32 122.617 92.965 113.34 94.899C111.066 95.3722 110.052 95.7823 110.052 95.7823C110.052 95.7823 110.897 94.46 112.509 93.8876C130.861 87.4354 144.976 112.917 106.584 123.01C106.584 123.01 107.029 122.613 107.162 122.257Z" fill="black"/>
<path d="M89.8311 10C89.8311 10 105.751 25.9252 74.7319 50.4136C49.8577 70.0575 69.0598 81.258 74.7215 94.055C60.2021 80.9549 49.5468 69.4228 56.6952 58.6898C67.1874 42.9348 96.2544 35.2962 89.8311 10Z" fill="black"/>
<path d="M60.0331 162.734C87.6254 164.5 129.996 161.754 131 148.698C131 148.698 129.071 153.648 108.196 157.578C84.6458 162.01 55.5995 161.493 38.3718 158.652C38.3722 158.652 41.8985 161.571 60.0331 162.734Z" fill="black"/>
</svg>
