<!-- width="165" height="159" -->
<svg width="100%" height="100%" viewBox="0 0 165 159" fill="none" xmlns="http://www.w3.org/2000/svg">
<path d="M141.025 41.1975C154.072 59.0521 162.994 76.2371 164.666 95.2076C166.451 114.067 161.098 134.823 148.162 145.535C135.115 156.136 114.373 156.806 92.5161 158.034C70.5477 159.261 47.464 161.158 30.0677 150.445C12.5598 139.733 0.962287 116.633 0.0701669 92.5294C-0.933468 68.4257 8.87985 43.3177 26.2762 25.4631C43.6725 7.6085 68.7634 -3.10426 89.8397 0.801435C110.916 4.70713 128.089 23.3429 141.025 41.1975Z" fill="#FFD43B"/>
<path fill-rule="evenodd" clip-rule="evenodd" d="M90.2779 128.134C87.5064 128.134 85.2641 125.88 85.2641 123.094C85.2641 120.308 87.5064 118.06 90.2779 118.06C93.0494 118.06 95.292 120.308 95.292 123.094C95.292 125.88 93.0494 128.134 90.2779 128.134ZM74.9139 137C104.112 137 102.29 124.273 102.29 124.273L102.255 111.089H74.3965V107.13H113.318C113.318 107.13 132 109.263 132 79.6516C132 50.0404 115.699 51.0841 115.699 51.0841H105.964V64.8302C105.964 64.8302 106.487 81.2155 89.9215 81.2155H62.287C62.287 81.2155 46.762 80.9691 46.762 96.3036V121.654C46.762 121.654 44.4044 137 74.9139 137ZM58.7277 30.8665C61.4992 30.8665 63.7359 33.1201 63.7359 35.9061C63.7359 38.6921 61.4992 40.9402 58.7277 40.9402C55.9562 40.9402 53.7138 38.6921 53.7138 35.9061C53.7138 33.1201 55.9562 30.8665 58.7277 30.8665ZM74.0861 22C44.8933 22 46.716 34.7269 46.716 34.7269L46.7506 47.9115H74.6093V51.8702H35.6817C35.6817 51.8702 17 49.7372 17 79.3484C17 108.96 33.307 107.916 33.307 107.916H43.0361V94.1698C43.0361 94.1698 42.5128 77.7845 59.0843 77.7845H86.713C86.713 77.7845 102.238 78.0309 102.238 62.6964V37.3464C102.238 37.3464 104.596 22 74.0861 22Z" fill="black"/>
</svg>
