<!-- width="167" height="148" -->
<svg width="100%" height="100%" viewBox="0 0 167 148" fill="none" xmlns="http://www.w3.org/2000/svg">
<path d="M134.237 33.0288C151.76 50.059 168.706 69.4511 166.862 86.8542C165.017 104.257 144.267 119.672 126.744 130.238C109.336 140.928 95.0411 147.019 79.9391 147.889C64.8371 148.76 48.9281 144.533 33.365 133.843C17.6866 123.152 2.46931 105.998 0.278944 86.4813C-1.91142 66.9649 9.04041 45.0867 24.6035 28.0565C40.1666 11.0263 60.4563 -1.15588 79.5932 0.0871956C98.7301 1.33028 116.714 15.9986 134.237 33.0288Z" fill="#61DAFB"/>
<path d="M120.553 56.3842C119.36 55.9709 118.124 55.5798 116.851 55.2099C117.06 54.3504 117.252 53.502 117.423 52.6681C120.225 38.9745 118.393 27.9428 112.136 24.3107C106.137 20.8281 96.3258 24.4593 86.4167 33.1404C85.4639 33.9752 84.5083 34.859 83.5532 35.7852C82.9168 35.1724 82.2814 34.5802 81.6477 34.0137C71.2627 24.7313 60.8534 20.8196 54.6029 24.4622C48.6094 27.955 46.8344 38.3258 49.3569 51.3033C49.6005 52.5568 49.8852 53.8369 50.2072 55.1384C48.734 55.5594 47.3118 56.0082 45.9509 56.4856C33.7757 60.7588 26 67.4558 26 74.4025C26 81.577 34.3472 88.7732 47.0287 93.1366C48.0294 93.4809 49.0679 93.8065 50.138 94.1156C49.7907 95.5232 49.4885 96.9026 49.2349 98.248C46.8297 111 48.708 121.126 54.6856 124.597C60.8599 128.181 71.2222 124.497 81.3124 115.618C82.1099 114.916 82.9103 114.172 83.7121 113.392C84.7513 114.399 85.7889 115.353 86.821 116.247C96.5946 124.713 106.248 128.132 112.22 124.652C118.388 121.057 120.392 110.18 117.79 96.9455C117.591 95.9347 117.36 94.9022 117.1 93.8512C117.828 93.6347 118.542 93.4111 119.239 93.1786C132.422 88.7814 141 81.6728 141 74.4025C141 67.4307 132.974 60.6885 120.553 56.3842ZM117.694 88.4843C117.065 88.6939 116.42 88.8964 115.762 89.0928C114.307 84.4545 112.342 79.5224 109.939 74.4266C112.233 69.4522 114.121 64.5831 115.536 59.9749C116.712 60.3176 117.854 60.679 118.954 61.0604C129.596 64.7484 136.087 70.201 136.087 74.4025C136.087 78.8778 129.077 84.6874 117.694 88.4843ZM112.97 97.906C114.121 103.758 114.286 109.049 113.523 113.185C112.838 116.902 111.461 119.379 109.758 120.372C106.134 122.484 98.3834 119.739 90.025 112.498C89.0668 111.668 88.1016 110.782 87.1334 109.844C90.3738 106.276 93.6123 102.129 96.7731 97.5225C102.332 97.0259 107.585 96.214 112.348 95.1055C112.583 96.0582 112.791 96.9925 112.97 97.906ZM65.2061 120.007C61.6652 121.266 58.8451 121.302 57.1404 120.312C53.5129 118.206 52.0049 110.076 54.0619 99.1704C54.2975 97.9214 54.578 96.6385 54.9012 95.3271C59.6121 96.3757 64.826 97.1303 70.3987 97.5851C73.5807 102.092 76.9128 106.235 80.2707 109.863C79.537 110.576 78.8063 111.255 78.0796 111.894C73.6178 115.82 69.1465 118.606 65.2061 120.007ZM48.6175 88.4569C43.01 86.5275 38.3791 84.0199 35.2049 81.2836C32.3526 78.8246 30.9126 76.3834 30.9126 74.4025C30.9126 70.187 37.1557 64.8102 47.5681 61.1556C48.8315 60.7122 50.154 60.2943 51.5265 59.9017C52.9655 64.614 54.8533 69.5408 57.1314 74.5228C54.8238 79.5788 52.9092 84.5841 51.4561 89.3516C50.4776 89.0685 49.5297 88.7705 48.6175 88.4569ZM54.1782 50.3536C52.017 39.2347 53.4523 30.8471 57.0642 28.7424C60.9115 26.5002 69.419 29.6971 78.3856 37.7119C78.9588 38.2242 79.5342 38.7604 80.1112 39.3151C76.7699 42.9268 73.4683 47.0386 70.3146 51.5193C64.906 52.0239 59.7288 52.8346 54.9687 53.9201C54.6695 52.7082 54.4044 51.5176 54.1782 50.3536ZM103.784 62.6842C102.646 60.7056 101.478 58.7737 100.287 56.8946C103.956 57.3616 107.472 57.9814 110.773 58.7399C109.782 61.9377 108.546 65.281 107.092 68.7085C106.049 66.7148 104.946 64.7047 103.784 62.6842ZM83.5549 42.8495C85.8209 45.3208 88.0902 48.08 90.3222 51.0737C88.073 50.9668 85.7959 50.9112 83.5 50.9112C81.2258 50.9112 78.9655 50.9656 76.7302 51.0707C78.9645 48.1048 81.2534 45.3493 83.5549 42.8495ZM63.1962 62.7184C62.0595 64.7026 60.9766 66.7019 59.9499 68.7048C58.5192 65.2893 57.2953 61.9306 56.2956 58.6876C59.5767 57.9485 63.0756 57.3441 66.7215 56.886C65.5138 58.7824 64.3359 60.7285 63.1962 62.718V62.7184ZM66.8265 92.2717C63.0596 91.8487 59.5081 91.2754 56.2278 90.5567C57.2435 87.2557 58.4944 83.8254 59.9554 80.3363C60.9848 82.3378 62.072 84.3379 63.2156 86.3264H63.2158C64.3808 88.3522 65.5877 90.3366 66.8265 92.2717ZM83.6908 106.304C81.3623 103.775 79.0398 100.978 76.7716 97.9684C78.9735 98.0554 81.2184 98.0999 83.5 98.0999C85.844 98.0999 88.1612 98.0467 90.4419 97.9445C88.2025 101.008 85.9414 103.81 83.6908 106.304ZM107.139 80.1585C108.676 83.6853 109.972 87.0977 111.001 90.3424C107.666 91.1081 104.066 91.7249 100.273 92.1831C101.467 90.2787 102.646 88.3137 103.804 86.2924C104.975 84.2474 106.087 82.1993 107.139 80.1585ZM99.5481 83.8217C97.7505 86.9594 95.9049 89.9548 94.0313 92.7822C90.6188 93.0278 87.0933 93.1543 83.5 93.1543C79.9213 93.1543 76.4402 93.0424 73.088 92.8234C71.1389 89.9589 69.2532 86.9547 67.467 83.8487H67.4674C65.6859 80.7511 64.0463 77.6274 62.5606 74.5212C64.0459 71.4077 65.6812 68.2805 67.4525 65.1885L67.4521 65.1891C69.228 62.0889 71.0971 59.0993 73.0282 56.2528C76.4483 55.9925 79.9554 55.8567 83.4998 55.8567H83.5C87.0603 55.8567 90.5719 55.9935 93.991 56.2561C95.8926 59.0818 97.7491 62.0617 99.532 65.1624C101.335 68.2978 102.992 71.4042 104.49 74.4509C102.996 77.5499 101.343 80.6876 99.5481 83.8217ZM109.683 28.5952C113.534 30.8308 115.031 39.847 112.612 51.6699C112.457 52.4243 112.283 53.1927 112.095 53.9714C107.324 52.8632 102.143 52.0385 96.7184 51.5263C93.5585 46.9964 90.2839 42.8782 86.9971 39.3128C87.8807 38.4571 88.7632 37.641 89.642 36.871C98.132 29.4331 106.067 26.4965 109.683 28.5952ZM83.5 64.0649C89.1714 64.0649 93.7691 68.6931 93.7691 74.4025C93.7691 80.1117 89.1714 84.7401 83.5 84.7401C77.8286 84.7401 73.2309 80.1117 73.2309 74.4025C73.2309 68.6931 77.8286 64.0649 83.5 64.0649Z" fill="black"/>
</svg>
