<!-- width="154" height="146" -->
<svg width="100%" height="100%" viewBox="0 0 154 146" fill="none" xmlns="http://www.w3.org/2000/svg">
<path d="M128.777 20.4124C137.558 30.0022 138.885 46.1214 141.642 64.9952C144.297 83.7669 148.483 105.395 139.702 120.902C131.024 136.409 109.379 145.897 87.7335 145.999C66.0884 146.101 44.2391 136.817 27.3927 121.31C10.5463 105.803 -1.39935 83.9709 0.132142 63.7709C1.66363 43.5709 16.6723 24.7992 33.5187 15.3113C50.3651 5.72145 69.1514 5.21135 86.5083 6.53761C103.967 7.76185 120.099 10.8225 128.777 20.4124Z" fill="#FF0099"/>
<path fill-rule="evenodd" clip-rule="evenodd" d="M40 56.6776V113.355H96.6776H153.355V56.6776V-0.00012207H96.6776H40V56.6776ZM65.0671 57.0536L65.0311 61.6958H72.4082H79.7853V82.6575V103.619H85.0032H90.2212V82.6575V61.6958H97.5983H104.975V57.1436C104.975 54.6246 104.921 52.5194 104.849 52.4655C104.795 52.3934 95.817 52.3574 84.9312 52.3755L65.1211 52.4294L65.0671 57.0536ZM138.556 56.3822C136.54 54.295 134.345 53.0176 131.466 52.2979C129.505 51.812 124.863 51.6681 122.866 52.0459C116.712 53.2155 112.448 57.1559 111.242 62.8057C110.901 64.425 111.009 68.4375 111.44 70.0388C111.962 71.9641 113.222 74.2672 114.553 75.7065C116.856 78.1896 119.375 79.755 125.223 82.274C130.333 84.4872 132.132 85.5487 133.014 86.8082C133.698 87.7979 133.86 88.3737 133.86 89.6871C133.86 91.1445 133.428 92.1342 132.384 93.0878C129.937 95.2828 124.971 95.5527 121.354 93.6455C120.095 92.9797 118.008 90.9825 117.054 89.5251L116.37 88.5176L113.114 90.4067C111.314 91.4504 109.407 92.548 108.903 92.8358C108.382 93.1417 107.914 93.4296 107.86 93.5016C107.734 93.7175 109.767 96.7223 110.811 97.8739C113.474 100.825 117.792 103.074 122.344 103.883C124.431 104.261 129.037 104.315 130.981 103.973C137.26 102.912 141.722 99.7091 143.522 94.995C145.159 90.6587 144.619 84.829 142.208 81.1764C140.049 77.9017 136.576 75.5986 128.462 72.108C124.053 70.2008 122.65 69.2651 121.894 67.6997C121.534 66.98 121.408 66.4583 121.408 65.5765C121.39 62.5718 123.604 60.7725 127.04 61.0063C129.379 61.1683 130.909 62.0859 132.366 64.2091C132.852 64.9288 133.284 65.3966 133.392 65.3247C136.379 63.4714 141.309 60.1608 141.273 60.0168C141.147 59.531 139.599 57.4978 138.556 56.3822Z" fill="black"/>
</svg>
