<!-- width="373" height="499" -->
<svg width="100%" height="100%" viewBox="0 0 373 499" fill="none" xmlns="http://www.w3.org/2000/svg">
<path d="M200.034 316.07C200.034 308.087 203.846 300.584 210.294 295.878L324.539 212.479C342.488 199.376 367.331 214.452 363.996 236.422L345.503 358.26C344.642 363.933 341.856 369.138 337.611 372.999L241.859 460.122C225.802 474.732 200.034 463.339 200.034 441.631V316.07Z" fill="#0000FF"/>
<path d="M27.4825 362.846C28.3509 368.715 31.2778 374.083 35.7403 377.992L131.493 461.869C147.655 476.026 172.966 464.549 172.966 443.064V320.691C172.966 312.868 169.304 305.497 163.071 300.77L48.8004 214.125C30.9539 200.593 5.68634 215.55 8.96478 237.705L27.4825 362.846Z" fill="#FF0000"/>
<path d="M174.623 96.9971C181.039 94.1632 188.351 94.1551 194.773 96.9746L308.266 146.8C326.35 154.739 328.52 179.526 312.091 190.487L198.61 266.198C190.188 271.817 179.208 271.802 170.802 266.159L57.996 190.442C41.6443 179.467 43.8134 154.773 61.8282 146.816L174.623 96.9971Z" fill="white"/>
</svg>
