<!-- width="560" height="330" -->
<svg width="100%" height="100%" viewBox="0 0 560 330" fill="none" xmlns="http://www.w3.org/2000/svg">
<path d="M236.863 3.38023C238.765 1.28533 241.633 0.351101 244.404 0.923346L300.445 12.4959C306.511 13.7485 308.914 21.1228 304.75 25.7084L261.562 73.2733C259.66 75.3682 256.792 76.3024 254.021 75.7302L197.98 64.1576C191.914 62.905 189.511 55.5308 193.675 50.9451L236.863 3.38023Z" fill="#F5F5F5"/>
<path d="M318.753 20.2699C320.655 18.175 323.523 17.2407 326.294 17.813L382.335 29.3856C388.401 30.6382 390.804 38.0124 386.64 42.5981L343.452 90.163C341.55 92.2579 338.682 93.1921 335.911 92.6198L279.869 81.0473C273.804 79.7947 271.401 72.4204 275.565 67.8348L318.753 20.2699Z" fill="#0FFF27"/>
<path d="M400.643 37.1598C402.545 35.0649 405.412 34.1306 408.183 34.7029L464.225 46.2755C470.291 47.5281 472.694 54.9023 468.53 59.488L425.341 107.053C423.439 109.148 420.572 110.082 417.801 109.51L361.759 97.9372C355.693 96.6845 353.291 89.3103 357.454 84.7246L400.643 37.1598Z" fill="#F5F5F5"/>
<path d="M482.533 54.0494C484.435 51.9545 487.302 51.0203 490.073 51.5925L546.115 63.1651C552.181 64.4177 554.583 71.792 550.42 76.3776L507.231 123.942C505.329 126.037 502.462 126.972 499.691 126.399L443.649 114.827C437.583 113.574 435.18 106.2 439.344 101.614L482.533 54.0494Z" fill="#F5F5F5"/>
<path d="M175.446 70.9393C177.348 68.8444 180.215 67.9102 182.987 68.4824L239.028 80.055C245.094 81.3076 247.497 88.6819 243.333 93.2675L200.145 140.832C198.242 142.927 195.375 143.862 192.604 143.289L136.562 131.717C130.496 130.464 128.094 123.09 132.257 118.504L175.446 70.9393Z" fill="#F5F5F5"/>
<path d="M257.336 87.8292C259.238 85.7343 262.105 84.8001 264.876 85.3723L320.918 96.9449C326.984 98.1975 329.386 105.572 325.223 110.157L282.034 157.722C280.132 159.817 277.265 160.751 274.494 160.179L218.452 148.607C212.386 147.354 209.984 139.98 214.147 135.394L257.336 87.8292Z" fill="#0FFF27"/>
<path d="M339.225 104.719C341.128 102.624 343.995 101.69 346.766 102.262L402.808 113.835C408.874 115.087 411.276 122.461 407.113 127.047L363.924 174.612C362.022 176.707 359.155 177.641 356.383 177.069L300.342 165.496C294.276 164.244 291.873 156.869 296.037 152.284L339.225 104.719Z" fill="#0FFF27"/>
<path d="M421.115 121.609C423.017 119.514 425.885 118.579 428.656 119.152L484.697 130.724C490.763 131.977 493.166 139.351 489.002 143.937L445.814 191.502C443.912 193.596 441.044 194.531 438.273 193.958L382.232 182.386C376.166 181.133 373.763 173.759 377.927 169.173L421.115 121.609Z" fill="#F5F5F5"/>
<path d="M114.029 138.498C115.931 136.403 118.798 135.469 121.569 136.042L177.611 147.614C183.677 148.867 186.079 156.241 181.916 160.827L138.727 208.391C136.825 210.486 133.958 211.421 131.187 210.848L75.1451 199.276C69.0792 198.023 66.6765 190.649 70.8402 186.063L114.029 138.498Z" fill="#F5F5F5"/>
<path d="M195.918 155.388C197.821 153.293 200.688 152.359 203.459 152.931L259.501 164.504C265.567 165.756 267.969 173.131 263.806 177.716L220.617 225.281C218.715 227.376 215.848 228.31 213.076 227.738L157.035 216.165C150.969 214.913 148.566 207.539 152.73 202.953L195.918 155.388Z" fill="#F5F5F5"/>
<path d="M277.808 172.278C279.71 170.183 282.578 169.249 285.349 169.821L341.39 181.394C347.456 182.646 349.859 190.02 345.695 194.606L302.507 242.171C300.605 244.266 297.737 245.2 294.966 244.628L238.925 233.055C232.859 231.803 230.456 224.428 234.62 219.843L277.808 172.278Z" fill="#0FFF27"/>
<path d="M359.698 189.168C361.6 187.073 364.467 186.138 367.239 186.711L423.28 198.283C429.346 199.536 431.749 206.91 427.585 211.496L384.397 259.061C382.494 261.156 379.627 262.09 376.856 261.518L320.814 249.945C314.749 248.692 312.346 241.318 316.51 236.732L359.698 189.168Z" fill="#F5F5F5"/>
<path d="M52.6113 206.057C54.5135 203.962 57.3808 203.028 60.152 203.6L116.193 215.173C122.259 216.426 124.662 223.8 120.498 228.385L77.3099 275.95C75.4078 278.045 72.5405 278.979 69.7693 278.407L13.7278 266.835C7.66183 265.582 5.25916 258.208 9.42288 253.622L52.6113 206.057Z" fill="#F5F5F5"/>
<path d="M134.501 222.947C136.403 220.852 139.271 219.918 142.042 220.49L198.083 232.063C204.149 233.315 206.552 240.69 202.388 245.275L159.2 292.84C157.298 294.935 154.43 295.869 151.659 295.297L95.6175 283.725C89.5516 282.472 87.1489 275.098 91.3126 270.512L134.501 222.947Z" fill="#F5F5F5"/>
<path d="M216.391 239.837C218.293 237.742 221.16 236.808 223.931 237.38L279.973 248.953C286.039 250.205 288.442 257.58 284.278 262.165L241.089 309.73C239.187 311.825 236.32 312.759 233.549 312.187L177.507 300.614C171.441 299.362 169.039 291.988 173.202 287.402L216.391 239.837Z" fill="#0FFF27"/>
<path d="M298.281 256.727C300.183 254.632 303.05 253.698 305.821 254.27L361.863 265.842C367.929 267.095 370.331 274.469 366.168 279.055L322.979 326.62C321.077 328.715 318.21 329.649 315.439 329.077L259.397 317.504C253.331 316.251 250.928 308.877 255.092 304.292L298.281 256.727Z" fill="#F5F5F5"/>
</svg>
