<!-- width="398" height="407" -->
<svg width="100%" height="100%" viewBox="0 0 398 407" fill="none" xmlns="http://www.w3.org/2000/svg">
<path fill-rule="evenodd" clip-rule="evenodd" d="M342.072 152.012C346.915 152.012 348.929 158.211 345.011 161.057L264.222 219.754L264.175 219.689L167.362 290.028L167.409 290.093L89.1951 346.918C85.2765 349.766 80.0041 345.935 81.5009 341.328L116.579 233.37C117.248 231.31 116.515 229.053 114.762 227.78L22.9273 161.058C19.0088 158.21 21.0227 152.012 25.8663 152.012L122.718 152.012L122.718 152.12L242.385 152.12L242.385 152.012L342.072 152.012ZM218.796 133.149L188.724 40.5989C187.228 35.9924 180.711 35.9924 179.214 40.5989L149.143 133.149L218.796 133.149ZM200.039 289.737L256.375 248.806L286.437 341.328C287.934 345.935 282.662 349.765 278.743 346.918L200.039 289.737Z" fill="#FFE100"/>
</svg>
