<!-- width="32" height="31" -->
<svg width="100%" height="100%" viewBox="0 0 32 31" fill="none" xmlns="http://www.w3.org/2000/svg">
<path d="M10.7032 24.3375C10.7032 24.4625 10.5548 24.5625 10.3677 24.5625C10.1548 24.5812 10.0065 24.4812 10.0065 24.3375C10.0065 24.2125 10.1548 24.1125 10.3419 24.1125C10.5355 24.0938 10.7032 24.1938 10.7032 24.3375ZM8.69677 24.0562C8.65161 24.1812 8.78065 24.325 8.97419 24.3625C9.14194 24.425 9.33548 24.3625 9.37419 24.2375C9.4129 24.1125 9.29032 23.9688 9.09677 23.9125C8.92903 23.8687 8.74194 23.9312 8.69677 24.0562ZM11.5484 23.95C11.3613 23.9938 11.2323 24.1125 11.2516 24.2563C11.271 24.3813 11.4387 24.4625 11.6323 24.4188C11.8194 24.375 11.9484 24.2563 11.929 24.1313C11.9097 24.0125 11.7355 23.9313 11.5484 23.95ZM15.7935 0C6.84516 0 0 6.58125 0 15.25C0 22.1812 4.50323 28.1125 10.9355 30.2C11.7613 30.3438 12.0516 29.85 12.0516 29.4438C12.0516 29.0562 12.0323 26.9188 12.0323 25.6063C12.0323 25.6063 7.51613 26.5437 6.56774 23.7437C6.56774 23.7437 5.83226 21.925 4.77419 21.4562C4.77419 21.4562 3.29677 20.475 4.87742 20.4937C4.87742 20.4937 6.48387 20.6188 7.36774 22.1063C8.78064 24.5188 11.1484 23.825 12.071 23.4125C12.2194 22.4125 12.6387 21.7188 13.1032 21.3062C9.49677 20.9187 5.85806 20.4125 5.85806 14.4C5.85806 12.6812 6.34839 11.8188 7.38065 10.7188C7.2129 10.3125 6.66452 8.6375 7.54839 6.475C8.89677 6.06875 12 8.1625 12 8.1625C13.2903 7.8125 14.6774 7.63125 16.0516 7.63125C17.4258 7.63125 18.8129 7.8125 20.1032 8.1625C20.1032 8.1625 23.2065 6.0625 24.5548 6.475C25.4387 8.64375 24.8903 10.3125 24.7226 10.7188C25.7548 11.825 26.3871 12.6875 26.3871 14.4C26.3871 20.4312 22.5871 20.9125 18.9806 21.3062C19.5742 21.8 20.0774 22.7375 20.0774 24.2062C20.0774 26.3125 20.0581 28.9187 20.0581 29.4312C20.0581 29.8375 20.3548 30.3312 21.1742 30.1875C27.6258 28.1125 32 22.1812 32 15.25C32 6.58125 24.7419 0 15.7935 0ZM6.27097 21.5562C6.1871 21.6187 6.20645 21.7625 6.31613 21.8813C6.41935 21.9813 6.56774 22.025 6.65161 21.9438C6.73548 21.8813 6.71613 21.7375 6.60645 21.6187C6.50323 21.5187 6.35484 21.475 6.27097 21.5562ZM5.57419 21.05C5.52903 21.1312 5.59355 21.2313 5.72258 21.2938C5.82581 21.3563 5.95484 21.3375 6 21.25C6.04516 21.1688 5.98064 21.0688 5.85161 21.0063C5.72258 20.9688 5.61935 20.9875 5.57419 21.05ZM7.66452 23.275C7.56129 23.3562 7.6 23.5438 7.74839 23.6625C7.89677 23.8062 8.08387 23.825 8.16774 23.725C8.25161 23.6438 8.2129 23.4562 8.08387 23.3375C7.94194 23.1938 7.74839 23.175 7.66452 23.275ZM6.92903 22.3563C6.82581 22.4188 6.82581 22.5813 6.92903 22.725C7.03226 22.8687 7.20645 22.9312 7.29032 22.8687C7.39355 22.7875 7.39355 22.625 7.29032 22.4813C7.2 22.3375 7.03226 22.275 6.92903 22.3563Z" fill="black"/>
</svg>
