<!-- width="54" height="54" -->
<svg width="100%" height="100%" viewBox="0 0 54 54" fill="none" xmlns="http://www.w3.org/2000/svg">
<path d="M30.8766 41.9728L22.7541 50.0933C17.5432 55.3022 9.11245 55.3022 3.90373 50.0933C1.38374 47.5777 0 44.2296 0 40.67C0 37.1104 1.38374 33.7623 3.90148 31.2445L14.8499 20.2979C20.1486 14.999 28.6064 15.2082 33.6981 20.2979C34.7173 21.3172 35.5206 22.4872 36.1483 23.7337L32.5641 27.3159C32.1591 25.9366 31.4391 24.6405 30.3951 23.5987C27.1371 20.3406 21.5526 20.2011 18.1574 23.5965L18.1552 23.601L7.20446 34.5476C3.82948 37.9204 3.82948 43.4151 7.20446 46.788C10.6177 50.2013 16.1099 50.1361 19.4489 46.788L24.9051 41.3338C27.1394 41.9728 28.9348 42.0876 30.8766 41.9728ZM31.2388 3.90612L23.1974 11.9524C25.1031 11.8399 26.9211 11.9524 29.1666 12.5891L34.5508 7.21373C37.9213 3.83412 43.4158 3.83862 46.7908 7.21148C50.204 10.6271 50.1342 16.1195 46.7908 19.4564L35.9211 30.3265L35.9143 30.3309C32.6788 33.5643 27.1709 33.8231 23.6766 30.3265C22.6124 29.2599 21.9104 27.9819 21.5256 26.6296L21.3366 26.7826L17.9234 30.1914C18.5534 31.4425 19.3521 32.6103 20.3714 33.6296C25.4226 38.681 33.8803 38.9712 39.2218 33.6296L50.0937 22.7595C55.3002 17.5483 55.3047 9.11954 50.0915 3.91062C44.8783 -1.31179 36.4408 -1.29379 31.2388 3.90612Z" fill="black"/>
</svg>
