<!-- width="1920" height="394" -->
<svg width="100%" height="100%" viewBox="0 0 1920 393" fill="none" xmlns="http://www.w3.org/2000/svg">
<path d="M0 183.556H80C160 183.556 320 183.556 480 166.101C640 148.319 800 113.903 960 83.0097C1120 52.4444 1280 26.2222 1440 13.1111C1600 0 1760 0 1840 0H1920V236H1840C1760 236 1600 236 1440 236C1280 236 1120 236 960 236C800 236 640 236 480 236C320 236 160 236 80 236H0V183.556Z" fill="#009FCB"/>
<rect width="1920" height="158" transform="matrix(-1 0 0 1 1920 235)" fill="#009FCB"/>
</svg>
